{
  "accessors": [
    {
      "bufferView": 2,
      "componentType": 5126,
      "count": 637,
      "max": [
        8.817098617553711,
        57.75830841064453,
        17.18999481201172
      ],
      "min": [
        -8.817098617553711,
        -24.683475494384766,
        -0.2457042932510376
      ],
      "type": "VEC3"
    },
    {
      "bufferView": 2,
      "byteOffset": 7644,
      "componentType": 5126,
      "count": 637,
      "max": [
        0.9995930790901184,
        0.9924302101135254,
        0.999022364616394
      ],
      "min": [
        -0.9995930194854736,
        -0.9261162877082825,
        -0.9999909996986389
      ],
      "type": "VEC3"
    },
    {
      "bufferView": 1,
      "componentType": 5126,
      "count": 637,
      "max": [
        0.9982936382293701,
        0.9942004680633545
      ],
      "min": [
        0.005102522671222687,
        0.009554201737046242
      ],
      "type": "VEC2"
    },
    {
      "bufferView": 0,
      "componentType": 5125,
      "count": 2238,
      "type": "SCALAR"
    }
  ],
  "asset": {
    "extras": {
      "author": "EWTube0 (https://sketchfab.com/EWTube0)",
      "license": "CC-BY-4.0 (http://creativecommons.org/licenses/by/4.0/)",
      "source": "https://sketchfab.com/3d-models/granny-horror-game-rat-9f0ae1c7bf2d4740adeacb7e370c4480",
      "title": "Granny: Horror Game - Rat"
    },
    "generator": "Sketchfab-12.68.0",
    "version": "2.0"
  },
  "bufferViews": [
    {
      "buffer": 0,
      "byteLength": 8952,
      "name": "floatBufferViews",
      "target": 34963
    },
    {
      "buffer": 0,
      "byteLength": 5096,
      "byteOffset": 8952,
      "byteStride": 8,
      "name": "floatBufferViews",
      "target": 34962
    },
    {
      "buffer": 0,
      "byteLength": 15288,
      "byteOffset": 14048,
      "byteStride": 12,
      "name": "floatBufferViews",
      "target": 34962
    }
  ],
  "buffers": [
    {
      "byteLength": 29336,
      "uri": "scene.bin"
    }
  ],
  "images": [
    {
      "uri": "textures/T_Rat_02_D_baseColor.png"
    }
  ],
  "materials": [
    {
      "doubleSided": true,
      "name": "T_Rat_02_D",
      "pbrMetallicRoughness": {
        "baseColorTexture": {
          "index": 0
        },
        "metallicFactor": 0.0,
        "roughnessFactor": 0.6
      }
    }
  ],
  "meshes": [
    {
      "name": "rat_LOD0_T_Rat_02_D_0",
      "primitives": [
        {
          "attributes": {
            "NORMAL": 1,
            "POSITION": 0,
            "TEXCOORD_0": 2
          },
          "indices": 3,
          "material": 0,
          "mode": 4
        }
      ]
    }
  ],
  "nodes": [
    {
      "children": [
        1
      ],
      "matrix": [
        1.0,
        0.0,
        0.0,
        0.0,
        0.0,
        2.220446049250313e-16,
        -1.0,
        0.0,
        0.0,
        1.0,
        2.220446049250313e-16,
        0.0,
        0.0,
        0.0,
        0.0,
        1.0
      ],
      "name": "Sketchfab_model"
    },
    {
      "children": [
        2
      ],
      "matrix": [
        1.0,
        0.0,
        0.0,
        0.0,
        0.0,
        0.0,
        1.0,
        0.0,
        0.0,
        -1.0,
        0.0,
        0.0,
        0.0,
        0.0,
        0.0,
        1.0
      ],
      "name": "89e569c847b94d3eb05f18fc5c670cf3.fbx"
    },
    {
      "children": [
        3
      ],
      "name": "RootNode"
    },
    {
      "children": [
        4
      ],
      "matrix": [
        1.0,
        0.0,
        0.0,
        0.0,
        0.0,
        0.10908104368293169,
        -0.9940329794969761,
        0.0,
        0.0,
        0.9940329794969761,
        0.10908104368293169,
        0.0,
        0.0,
        0.0,
        0.0,
        1.0
      ],
      "name": "rat_LOD0"
    },
    {
      "mesh": 0,
      "name": "rat_LOD0_T_Rat_02_D_0"
    }
  ],
  "samplers": [
    {
      "magFilter": 9729,
      "minFilter": 9987,
      "wrapS": 10497,
      "wrapT": 10497
    }
  ],
  "scene": 0,
  "scenes": [
    {
      "name": "Sketchfab_Scene",
      "nodes": [
        0
      ]
    }
  ],
  "textures": [
    {
      "sampler": 0,
      "source": 0
    }
  ]
}
